<svg width="8" height="12" viewBox="0 0 8 12" fill="none" xmlns="http://www.w3.org/2000/svg">
<path d="M4.54547 6.18182C6.24979 6.18182 7.63638 4.79524 7.63638 3.09091C7.63638 1.38658 6.24979 0 4.54547 0C4.53881 0 4.53219 0.000109091 4.52561 0.000363636H2.00074C2.00048 0.000363636 2.00027 0.000327273 2.00005 0.000327273C1.69881 0.000327273 1.45459 0.244545 1.45459 0.545782V0.545818V5.63636V7.27273H0.909102C0.607866 7.27273 0.363647 7.51695 0.363647 7.81818C0.363647 8.11942 0.607866 8.36364 0.909102 8.36364H1.45456V11.4545C1.45456 11.7558 1.69878 12 2.00001 12C2.30125 12 2.54547 11.7558 2.54547 11.4545V8.36364H4.54547C4.8467 8.36364 5.09092 8.11942 5.09092 7.81818C5.09092 7.51695 4.8467 7.27273 4.54547 7.27273H2.54547V6.18182H4.54547ZM4.54547 1.09127C4.55136 1.09127 4.55725 1.09116 4.56307 1.09098C5.65783 1.10044 6.54547 1.99396 6.54547 3.09091C6.54547 4.19371 5.64827 5.09091 4.54547 5.09091H2.54547V1.09127H4.54547Z" fill="#BD5605"/>
</svg>
