<svg width="5" height="7" viewBox="0 0 5 7" fill="none" xmlns="http://www.w3.org/2000/svg">
<path d="M2.81818 3.60606C3.81237 3.60606 4.62121 2.79722 4.62121 1.80303C4.62121 0.808839 3.81237 0 2.81818 0C2.8143 0 2.81044 6.36364e-05 2.8066 0.000212121H1.33375C1.33361 0.000212121 1.33348 0.000190909 1.33335 0.000190909C1.15763 0.000190909 1.01517 0.142651 1.01517 0.318373V0.318394V3.28788V4.24242H0.696966C0.521245 4.24242 0.378784 4.38488 0.378784 4.56061C0.378784 4.73633 0.521245 4.87879 0.696966 4.87879H1.01515V6.68182C1.01515 6.85754 1.15761 7 1.33333 7C1.50905 7 1.65151 6.85754 1.65151 6.68182V4.87879H2.81818C2.9939 4.87879 3.13636 4.73633 3.13636 4.56061C3.13636 4.38488 2.9939 4.24242 2.81818 4.24242H1.65151V3.60606H2.81818ZM2.81818 0.636576C2.82162 0.636576 2.82505 0.636512 2.82845 0.636406C3.46706 0.641921 3.98485 1.16315 3.98485 1.80303C3.98485 2.44633 3.46148 2.9697 2.81818 2.9697H1.65151V0.636576H2.81818Z" fill="#828282"/>
</svg>
