<svg width="80" height="80" viewBox="0 0 80 80" fill="none" xmlns="http://www.w3.org/2000/svg">
<path d="M72.1875 6.875H64.7395V4.6875C64.7395 2.10281 62.6367 0 60.052 0C57.4673 0 55.3645 2.10281 55.3645 4.6875V6.875H29.1145V4.6875C29.1145 2.10281 27.0117 0 24.427 0C21.8423 0 19.7395 2.10281 19.7395 4.6875V6.93281C19.6067 6.89609 19.4675 6.875 19.323 6.875H13.0973C8.78953 6.875 5.28484 10.3797 5.28484 14.6875V41.302C5.28484 42.165 5.98453 42.8645 6.84734 42.8645C7.71016 42.8645 8.40984 42.165 8.40984 41.302V22.9688H64.7395C65.6023 22.9688 66.302 22.2692 66.302 21.4062C66.302 20.5433 65.6023 19.8438 64.7395 19.8438H8.40984V14.6875C8.40984 12.1028 10.5127 10 13.0973 10H19.323C19.4675 10 19.6067 9.97875 19.7395 9.94219V11.9531C19.7395 14.5378 21.8423 16.6406 24.427 16.6406C27.0117 16.6406 29.1145 14.5378 29.1145 11.9531V10H55.3645V11.9531C55.3645 14.5378 57.4673 16.6406 60.052 16.6406C62.6367 16.6406 64.7395 14.5378 64.7395 11.9531V10H72.1875C74.7722 10 76.875 12.1028 76.875 14.6875V74.0616C76.875 75.6128 75.613 76.875 74.0616 76.875C72.5102 76.875 71.2481 75.6128 71.2481 74.0616V70.0195C71.2481 69.1566 70.5484 68.457 69.6856 68.457H51.5105C50.6477 68.457 49.948 69.1566 49.948 70.0195C49.948 70.8825 50.6477 71.582 51.5105 71.582H68.1231V74.0616C68.1231 75.0789 68.3806 76.037 68.8333 76.875H5.9375C4.38672 76.875 3.125 75.6133 3.125 74.0625V71.582H38.0977C38.9605 71.582 39.6602 70.8825 39.6602 70.0195C39.6602 69.1566 38.9605 68.457 38.0977 68.457H22.4858C25.2161 66.1056 26.9498 62.6275 26.9498 58.75C26.9498 51.6852 21.2022 45.9375 14.1373 45.9375C7.0725 45.9375 1.32484 51.6852 1.32484 58.75C1.32484 62.6275 3.05859 66.1056 5.78891 68.457H1.5625C0.699688 68.457 0 69.1566 0 70.0195V74.0625C0 77.3364 2.66359 80 5.9375 80H74.0616C77.3359 80 80 77.3361 80 74.0616V14.6875C80 10.3797 76.4953 6.875 72.1875 6.875ZM25.9895 11.9531C25.9895 12.8147 25.2886 13.5156 24.427 13.5156C23.5655 13.5156 22.8645 12.8147 22.8645 11.9531V4.6875C22.8645 3.82594 23.5655 3.125 24.427 3.125C25.2886 3.125 25.9895 3.82594 25.9895 4.6875V11.9531ZM61.6145 11.9531C61.6145 12.8147 60.9136 13.5156 60.052 13.5156C59.1905 13.5156 58.4895 12.8147 58.4895 11.9531V4.6875C58.4895 3.82594 59.1905 3.125 60.052 3.125C60.9136 3.125 61.6145 3.82594 61.6145 4.6875V11.9531ZM4.44984 58.75C4.44984 53.4083 8.79562 49.0625 14.1373 49.0625C19.4791 49.0625 23.8248 53.4083 23.8248 58.75C23.8248 64.0917 19.4791 68.4375 14.1373 68.4375C8.79562 68.4375 4.44984 64.0917 4.44984 58.75Z" fill="#46C84B"/>
<path d="M73.1733 20.3016C72.8828 20.0109 72.4797 19.8438 72.0687 19.8438C71.6576 19.8438 71.2547 20.0109 70.964 20.3016C70.6734 20.5922 70.5062 20.9953 70.5062 21.4062C70.5062 21.8172 70.6733 22.2203 70.964 22.5109C71.2548 22.8016 71.6576 22.9688 72.0687 22.9688C72.4797 22.9688 72.8828 22.8016 73.1733 22.5109C73.4639 22.2203 73.6312 21.8172 73.6312 21.4062C73.6312 20.9953 73.464 20.5922 73.1733 20.3016Z" fill="#46C84B"/>
<path d="M46.664 68.9141C46.3735 68.6235 45.9704 68.4579 45.5594 68.4579C45.1485 68.4579 44.7454 68.6235 44.4548 68.9141C44.1641 69.2063 43.9969 69.6079 43.9969 70.0188C43.9969 70.4313 44.164 70.8329 44.4548 71.125C44.7454 71.4157 45.1485 71.5813 45.5594 71.5813C45.9704 71.5813 46.3735 71.4157 46.664 71.125C46.9546 70.8329 47.1219 70.4297 47.1219 70.0188C47.1219 69.6079 46.9548 69.2063 46.664 68.9141Z" fill="#46C84B"/>
<path d="M35.3508 47.5C32.0769 47.5 29.4133 50.1636 29.4133 53.4375C29.4133 56.7114 32.0769 59.375 35.3508 59.375C38.6247 59.375 41.2883 56.7114 41.2883 53.4375C41.2883 50.1636 38.6247 47.5 35.3508 47.5ZM35.3508 56.25C33.8 56.25 32.5383 54.9883 32.5383 53.4375C32.5383 51.8867 33.8 50.625 35.3508 50.625C36.9016 50.625 38.1633 51.8867 38.1633 53.4375C38.1633 54.9883 36.9016 56.25 35.3508 56.25Z" fill="#46C84B"/>
<path d="M49.9341 47.5C46.6602 47.5 43.9966 50.1636 43.9966 53.4375C43.9966 56.7114 46.6602 59.375 49.9341 59.375C53.208 59.375 55.8716 56.7114 55.8716 53.4375C55.8716 50.1636 53.208 47.5 49.9341 47.5ZM49.9341 56.25C48.3833 56.25 47.1216 54.9883 47.1216 53.4375C47.1216 51.8867 48.3833 50.625 49.9341 50.625C51.4849 50.625 52.7466 51.8867 52.7466 53.4375C52.7466 54.9883 51.4849 56.25 49.9341 56.25Z" fill="#46C84B"/>
<path d="M64.5176 47.5C61.2437 47.5 58.5801 50.1636 58.5801 53.4375C58.5801 56.7114 61.2437 59.375 64.5176 59.375C67.7915 59.375 70.4551 56.7114 70.4551 53.4375C70.4551 50.1636 67.7915 47.5 64.5176 47.5ZM64.5176 56.25C62.9668 56.25 61.7051 54.9883 61.7051 53.4375C61.7051 51.8867 62.9668 50.625 64.5176 50.625C66.0684 50.625 67.3301 51.8867 67.3301 53.4375C67.3301 54.9883 66.0684 56.25 64.5176 56.25Z" fill="#46C84B"/>
<path d="M20.7676 31.25C17.4937 31.25 14.8301 33.9136 14.8301 37.1875C14.8301 40.4614 17.4937 43.125 20.7676 43.125C24.0415 43.125 26.7051 40.4614 26.7051 37.1875C26.7051 33.9136 24.0415 31.25 20.7676 31.25ZM20.7676 40C19.2168 40 17.9551 38.7383 17.9551 37.1875C17.9551 35.6367 19.2168 34.375 20.7676 34.375C22.3184 34.375 23.5801 35.6367 23.5801 37.1875C23.5801 38.7383 22.3184 40 20.7676 40Z" fill="#46C84B"/>
<path d="M49.9341 31.25C46.6602 31.25 43.9966 33.9136 43.9966 37.1875C43.9966 40.4614 46.6602 43.125 49.9341 43.125C53.208 43.125 55.8716 40.4614 55.8716 37.1875C55.8716 33.9136 53.208 31.25 49.9341 31.25ZM49.9341 40C48.3833 40 47.1216 38.7383 47.1216 37.1875C47.1216 35.6367 48.3833 34.375 49.9341 34.375C51.4849 34.375 52.7466 35.6367 52.7466 37.1875C52.7466 38.7383 51.4849 40 49.9341 40Z" fill="#46C84B"/>
<path d="M64.5176 31.25C61.2437 31.25 58.5801 33.9136 58.5801 37.1875C58.5801 40.4614 61.2437 43.125 64.5176 43.125C67.7915 43.125 70.4551 40.4614 70.4551 37.1875C70.4551 33.9136 67.7915 31.25 64.5176 31.25ZM64.5176 40C62.9668 40 61.7051 38.7383 61.7051 37.1875C61.7051 35.6367 62.9668 34.375 64.5176 34.375C66.0684 34.375 67.3301 35.6367 67.3301 37.1875C67.3301 38.7383 66.0684 40 64.5176 40Z" fill="#46C84B"/>
<path d="M35.3508 31.25C32.0769 31.25 29.4133 33.9136 29.4133 37.1875C29.4133 40.4614 32.0769 43.125 35.3508 43.125C38.6247 43.125 41.2883 40.4614 41.2883 37.1875C41.2883 33.9136 38.6247 31.25 35.3508 31.25ZM35.3508 40C33.8 40 32.5383 38.7383 32.5383 37.1875C32.5383 35.6367 33.8 34.375 35.3508 34.375C36.9016 34.375 38.1633 35.6367 38.1633 37.1875C38.1633 38.7383 36.9016 40 35.3508 40Z" fill="#46C84B"/>
<path d="M19.7038 54.9421C19.0935 54.332 18.1044 54.332 17.4939 54.9421L12.4055 60.0307L10.6666 58.2918C10.0563 57.6816 9.06723 57.6816 8.45676 58.2918C7.84661 58.902 7.84661 59.8913 8.45676 60.5017L11.3007 63.3453C11.5938 63.6382 11.9911 63.8029 12.4055 63.8029C12.8199 63.8029 13.2172 63.6382 13.5104 63.3453L19.7038 57.1518C20.3139 56.5416 20.3139 55.5523 19.7038 54.9421Z" fill="#46C84B"/>
</svg>
