<svg width="80" height="80" viewBox="0 0 80 80" fill="none" xmlns="http://www.w3.org/2000/svg">
<g clip-path="url(#clip0)">
<path d="M75.3125 0H4.6875C2.10266 0 0 2.10266 0 4.6875V57.1875C0 59.7723 2.10266 61.875 4.6875 61.875H43.9423C45.2435 65.6018 48.0072 68.6487 51.5424 70.3247V78.4375C51.5424 79.0045 51.85 79.527 52.345 79.8029C52.8406 80.0787 53.446 80.0641 53.9282 79.7656L57.8125 77.359L61.6968 79.7656C61.9489 79.9213 62.2339 80 62.5201 80C62.7814 80 63.0432 79.9341 63.28 79.8029C63.775 79.527 64.0826 79.0045 64.0826 78.4375V70.3247C67.6178 68.6487 70.3815 65.6018 71.6827 61.875H75.3125C77.8973 61.875 80 59.7723 80 57.1875V4.6875C80 2.10266 77.8973 0 75.3125 0ZM60.9576 75.6311L58.6353 74.1925C58.1311 73.8806 57.4939 73.8806 56.9897 74.1925L54.6674 75.6311V71.3922C55.6812 71.6138 56.7334 71.7322 57.8125 71.7322C58.8916 71.7322 59.9438 71.6138 60.9576 71.3922V75.6311ZM57.8125 68.6072C51.4368 68.6072 46.25 63.4204 46.25 57.0447C46.25 50.6689 51.4368 45.4822 57.8125 45.4822C64.1882 45.4822 69.375 50.6689 69.375 57.0447C69.375 63.4204 64.1882 68.6072 57.8125 68.6072ZM76.875 57.1875C76.875 58.0493 76.1743 58.75 75.3125 58.75H72.4005C72.4652 58.1903 72.5 57.6215 72.5 57.0447C72.5 53.6584 71.3477 50.5371 69.4153 48.0499C69.9036 47.8943 70.415 47.8125 70.9375 47.8125C71.8005 47.8125 72.5 47.113 72.5 46.25V15.625C72.5 14.762 71.8005 14.0625 70.9375 14.0625C68.1805 14.0625 65.9375 11.8195 65.9375 9.0625C65.9375 8.19946 65.238 7.5 64.375 7.5H46.416C45.553 7.5 44.8535 8.19946 44.8535 9.0625C44.8535 9.92554 45.553 10.625 46.416 10.625H62.9633C63.595 13.8544 66.1456 16.405 69.375 17.0367V44.8376C68.5736 44.9939 67.8015 45.2704 67.0807 45.6598C64.5514 43.5962 61.3239 42.3572 57.8125 42.3572C51.7706 42.3572 46.5698 46.0248 44.3176 51.25H17.0367C16.405 48.0206 13.8544 45.47 10.625 44.8383V17.0367C13.8544 16.405 16.405 13.8544 17.0367 10.625H33.916C34.7791 10.625 35.4785 9.92554 35.4785 9.0625C35.4785 8.19946 34.7791 7.5 33.916 7.5H15.625C14.762 7.5 14.0625 8.19946 14.0625 9.0625C14.0625 11.8195 11.8195 14.0625 9.0625 14.0625C8.19946 14.0625 7.5 14.762 7.5 15.625V46.25C7.5 47.113 8.19946 47.8125 9.0625 47.8125C11.8195 47.8125 14.0625 50.0555 14.0625 52.8125C14.0625 53.6755 14.762 54.375 15.625 54.375H43.3691C43.2092 55.2411 43.125 56.1334 43.125 57.0447C43.125 57.6215 43.1598 58.1903 43.2245 58.75H4.6875C3.82568 58.75 3.125 58.0493 3.125 57.1875V4.6875C3.125 3.82568 3.82568 3.125 4.6875 3.125H75.3125C76.1743 3.125 76.875 3.82568 76.875 4.6875V57.1875Z" fill="#46C84B"/>
<path d="M57.8125 49.2322C53.5046 49.2322 50 52.7368 50 57.0447C50 61.3525 53.5046 64.8572 57.8125 64.8572C62.1204 64.8572 65.625 61.3525 65.625 57.0447C65.625 52.7368 62.1204 49.2322 57.8125 49.2322ZM57.8125 61.7322C55.2277 61.7322 53.125 59.6295 53.125 57.0447C53.125 54.4598 55.2277 52.3572 57.8125 52.3572C60.3973 52.3572 62.5 54.4598 62.5 57.0447C62.5 59.6295 60.3973 61.7322 57.8125 61.7322Z" fill="#46C84B"/>
<path d="M32.3535 23.9844C32.3535 28.2922 35.8582 31.7969 40.166 31.7969C44.4739 31.7969 47.9785 28.2922 47.9785 23.9844C47.9785 19.6765 44.4739 16.1719 40.166 16.1719C35.8582 16.1719 32.3535 19.6765 32.3535 23.9844ZM44.8535 23.9844C44.8535 26.5692 42.7509 28.6719 40.166 28.6719C37.5812 28.6719 35.4785 26.5692 35.4785 23.9844C35.4785 21.3995 37.5812 19.2969 40.166 19.2969C42.7509 19.2969 44.8535 21.3995 44.8535 23.9844Z" fill="#46C84B"/>
<path d="M24.9518 37.2656C24.9518 38.1287 25.6512 38.8281 26.5143 38.8281H53.4857C54.3488 38.8281 55.0482 38.1287 55.0482 37.2656C55.0482 36.4026 54.3488 35.7031 53.4857 35.7031H26.5143C25.6512 35.7031 24.9518 36.4026 24.9518 37.2656Z" fill="#46C84B"/>
<path d="M44.6875 42.5781H35.3125C34.4495 42.5781 33.75 43.2776 33.75 44.1406C33.75 45.0037 34.4495 45.7031 35.3125 45.7031H44.6875C45.5505 45.7031 46.25 45.0037 46.25 44.1406C46.25 43.2776 45.5505 42.5781 44.6875 42.5781Z" fill="#46C84B"/>
<path d="M7.95776 53.9172C8.24829 54.2078 8.65173 54.375 9.0625 54.375C9.47327 54.375 9.87671 54.2078 10.1672 53.9172C10.4578 53.6267 10.625 53.2233 10.625 52.8125C10.625 52.4017 10.4578 51.9983 10.1672 51.7078C9.87671 51.4172 9.47327 51.25 9.0625 51.25C8.65173 51.25 8.24829 51.4172 7.95776 51.7078C7.66724 51.9983 7.5 52.4017 7.5 52.8125C7.5 53.2233 7.66724 53.6267 7.95776 53.9172Z" fill="#46C84B"/>
<path d="M9.0625 7.5C8.65173 7.5 8.24829 7.66724 7.95776 7.95776C7.66724 8.24829 7.5 8.65173 7.5 9.0625C7.5 9.47327 7.66724 9.87671 7.95776 10.1672C8.24829 10.4578 8.65173 10.625 9.0625 10.625C9.47327 10.625 9.87671 10.4578 10.1672 10.1672C10.4578 9.87671 10.625 9.47327 10.625 9.0625C10.625 8.65173 10.4578 8.24829 10.1672 7.95776C9.87671 7.66724 9.47327 7.5 9.0625 7.5Z" fill="#46C84B"/>
<path d="M70.9375 7.5C70.5267 7.5 70.1233 7.66724 69.8328 7.95776C69.5422 8.24829 69.375 8.65173 69.375 9.0625C69.375 9.47327 69.5422 9.87671 69.8328 10.1672C70.1233 10.4578 70.5267 10.625 70.9375 10.625C71.3483 10.625 71.7517 10.4578 72.0422 10.1672C72.3328 9.87671 72.5 9.47327 72.5 9.0625C72.5 8.65173 72.3328 8.24829 72.0422 7.95776C71.7517 7.66724 71.3483 7.5 70.9375 7.5Z" fill="#46C84B"/>
<path d="M40.1654 10.625C40.578 10.625 40.9796 10.4578 41.2701 10.1672C41.5625 9.87671 41.7279 9.47327 41.7279 9.0625C41.7279 8.65173 41.5625 8.24829 41.2701 7.95776C40.9796 7.66724 40.5768 7.5 40.1654 7.5C39.7546 7.5 39.3518 7.66724 39.0607 7.95776C38.7701 8.24829 38.6029 8.65173 38.6029 9.0625C38.6029 9.47327 38.7701 9.87671 39.0607 10.1672C39.3518 10.4578 39.7546 10.625 40.1654 10.625Z" fill="#46C84B"/>
</g>
<defs>
<clipPath id="clip0">
<rect width="80" height="80" fill="white"/>
</clipPath>
</defs>
</svg>
