<svg width="80" height="80" viewBox="0 0 80 80" fill="none" xmlns="http://www.w3.org/2000/svg">
<path d="M68.5846 70.6091C67.7224 70.6091 67.0226 71.309 67.0226 72.1712C67.0226 73.0333 67.7224 73.7332 68.5846 73.7332C69.4468 73.7332 70.1467 73.0333 70.1467 72.1712C70.1467 71.309 69.4468 70.6091 68.5846 70.6091Z" fill="#F38E3D"/>
<path d="M58.744 70.6091C57.8818 70.6091 57.182 71.309 57.182 72.1712C57.182 73.0333 57.8818 73.7332 58.744 73.7332C59.6062 73.7332 60.3061 73.0333 60.3061 72.1712C60.3061 71.309 59.6062 70.6091 58.744 70.6091Z" fill="#F38E3D"/>
<path d="M49.372 70.6091C48.5098 70.6091 47.8099 71.309 47.8099 72.1712C47.8099 73.0333 48.5098 73.7332 49.372 73.7332C50.2341 73.7332 50.934 73.0333 50.934 72.1712C50.934 71.309 50.2341 70.6091 49.372 70.6091Z" fill="#F38E3D"/>
<path d="M39.0628 70.6091C38.2006 70.6091 37.5007 71.309 37.5007 72.1712C37.5007 73.0333 38.2006 73.7332 39.0628 73.7332C39.9249 73.7332 40.6248 73.0333 40.6248 72.1712C40.6248 71.309 39.9249 70.6091 39.0628 70.6091Z" fill="#F38E3D"/>
<path d="M29.6907 70.6091C28.8285 70.6091 28.1287 71.309 28.1287 72.1712C28.1287 73.0333 28.8285 73.7332 29.6907 73.7332C30.5529 73.7332 31.2527 73.0333 31.2527 72.1712C31.2527 71.309 30.5529 70.6091 29.6907 70.6091Z" fill="#F38E3D"/>
<path d="M20.3189 70.6091C19.4567 70.6091 18.7568 71.309 18.7568 72.1712C18.7568 73.0333 19.4567 73.7332 20.3189 73.7332C21.181 73.7332 21.8809 73.0333 21.8809 72.1712C21.8809 71.309 21.181 70.6091 20.3189 70.6091Z" fill="#F38E3D"/>
<path d="M10.9468 70.6091C10.0846 70.6091 9.38477 71.309 9.38477 72.1712C9.38477 73.0333 10.0846 73.7332 10.9468 73.7332C11.809 73.7332 12.5088 73.0333 12.5088 72.1712C12.5088 71.309 11.809 70.6091 10.9468 70.6091Z" fill="#F38E3D"/>
<path d="M72.1773 64.35H70.1467V48.4301C70.1467 47.5675 69.4473 46.8681 68.5847 46.8681H55.62C54.7573 46.8681 54.058 47.5675 54.058 48.4301V64.35H40.6247V43.744C40.6247 40.9978 39.7508 38.3917 38.0972 36.2076C36.578 34.2009 34.4502 32.6786 32.0742 31.8872L21.8223 22.1337L53.7394 18.2512C54.3009 18.8769 54.9295 19.4323 55.6198 19.9128V25H54.0578C53.4661 25 52.9253 25.3342 52.6608 25.8634L49.5367 32.1114C49.2361 32.7128 49.3539 33.4391 49.8292 33.9144L56.0772 40.1623C56.6872 40.7723 57.6762 40.7723 58.2864 40.1623C58.8964 39.5523 58.8964 38.5633 58.2864 37.9531L52.8344 32.5012L55.0233 28.1237H68.7127L70.9016 32.5012L65.4495 37.9531C64.8395 38.5631 64.8395 39.5522 65.4495 40.1623C65.7545 40.4673 66.1544 40.6198 66.5541 40.6198C66.9538 40.6198 67.3536 40.4673 67.6586 40.1623L73.9066 33.9144C74.3819 33.4389 74.4998 32.7126 74.1991 32.1114L71.075 25.8634C70.8105 25.3342 70.2695 25 69.678 25H68.1159V19.9134C71.0269 17.8809 72.8019 14.5233 72.8019 10.9419C72.8019 4.91281 67.8969 0.0078125 61.8678 0.0078125C57.8089 0.0078125 54.1347 2.23437 52.24 5.75797L14.1764 6.56875C14.0394 6.57172 13.9078 6.5939 13.782 6.62968C12.8594 6.38297 11.9089 6.25594 10.9467 6.25594C4.91766 6.25594 0.0126563 11.1609 0.0126563 17.19C0.0126563 23.015 4.59156 27.7898 10.3389 28.1062L17.4406 37.2714C16.2558 39.2176 15.6328 41.4319 15.6328 43.744V64.3498H7.82266C5.73391 64.3498 3.76969 65.1637 2.29188 66.6417C0.813906 68.1197 0 70.0837 0 72.1726C0 76.4861 3.50922 79.9953 7.82266 79.9953H72.1773C74.2661 79.9953 76.2303 79.1814 77.7081 77.7034C79.1861 76.2256 80 74.2614 80 72.1726C80 67.8592 76.4908 64.35 72.1773 64.35ZM64.992 25H58.7441V21.4203C59.753 21.7205 60.8056 21.8759 61.8681 21.8759C62.9306 21.8759 63.9833 21.7205 64.9922 21.4203L64.992 25ZM54.6691 7.9075C55.8939 5.00672 58.7197 3.13203 61.868 3.13203C66.1744 3.13203 69.678 6.63562 69.678 10.942C69.678 13.7217 68.1813 16.3142 65.7716 17.7078C64.5911 18.3911 63.2412 18.752 61.868 18.752C60.4947 18.752 59.1447 18.3909 57.9641 17.7076C57.0552 17.1819 56.2734 16.4914 55.64 15.6541C54.6052 14.2897 54.0581 12.6602 54.0581 10.942C54.0583 9.88765 54.2637 8.86672 54.6691 7.9075ZM57.182 49.9922H67.0227V64.3626H57.182V49.9922ZM30.8059 34.7609L30.8091 34.7619C34.7491 35.9339 37.5008 39.6275 37.5008 43.7442C37.5008 48.912 33.2966 53.1162 28.1287 53.1162C22.9609 53.1162 18.7567 48.9119 18.7567 43.7442C18.7567 41.7053 19.4 39.7678 20.6172 38.1405C22.4062 35.7456 25.1442 34.3722 28.1287 34.3722C29.0444 34.372 29.945 34.5028 30.8059 34.7609ZM37.5008 51.9964V64.3626H18.7567V51.9964C21.0483 54.5958 24.3992 56.2401 28.1287 56.2401C31.8583 56.2401 35.2092 54.5956 37.5008 51.9964ZM51.1252 8.9064C50.9997 9.57265 50.9341 10.252 50.9341 10.9419C50.9341 12.478 51.248 13.9631 51.8512 15.3339L21.7295 18.9981C21.8283 18.4047 21.8808 17.8014 21.8808 17.19C21.8808 14.2873 20.7378 11.588 18.8153 9.59453L51.1252 8.9064ZM10.6305 24.9919C6.47016 24.8253 3.13656 21.3903 3.13656 17.19C3.13656 12.8836 6.64016 9.38 10.9466 9.38C11.8033 9.38 12.6469 9.51797 13.4537 9.79C16.6256 10.8644 18.7566 13.8381 18.7566 17.19C18.7566 18.2444 18.5509 19.2653 18.1452 20.2253C18.0384 20.478 17.9141 20.7333 17.7773 20.9806C16.487 23.3 14.0919 24.805 11.4508 24.9797C11.1833 24.9116 10.9002 24.9142 10.6305 24.9919ZM13.9722 27.695C16.0856 27.0831 17.9819 25.8409 19.3911 24.1325L26.9327 31.3073C24.1239 31.5812 21.4745 32.8105 19.448 34.7617L13.9722 27.695ZM75.4811 75.4765C74.5981 76.3595 73.4247 76.8459 72.1773 76.8459H7.82266C5.24563 76.8459 3.14937 74.7495 3.14937 72.1725C3.14937 70.9251 3.63578 69.7517 4.51891 68.8686C5.40188 67.9856 6.57531 67.4992 7.82266 67.4992H17.1947C17.2594 67.4992 17.3228 67.4942 17.3855 67.4865H38.8722C38.9348 67.4942 38.9983 67.4992 39.063 67.4992H55.6202C55.6848 67.4992 55.7483 67.4942 55.8109 67.4865H68.3944C68.457 67.4942 68.5205 67.4992 68.5852 67.4992H72.1778C74.7547 67.4992 76.8511 69.5956 76.8511 72.1726C76.8506 73.42 76.3642 74.5934 75.4811 75.4765Z" fill="#F38E3D"/>
<path d="M61.8681 6.25452C59.2842 6.25452 57.182 8.3567 57.182 10.9406C57.182 13.5245 59.2842 15.6265 61.8681 15.6265C64.452 15.6265 66.554 13.5244 66.554 10.9406C66.554 8.3567 64.4518 6.25452 61.8681 6.25452ZM61.8681 12.5026C61.0068 12.5026 60.3061 11.8019 60.3061 10.9406C60.3061 10.0794 61.0068 9.37858 61.8681 9.37858C62.7293 9.37858 63.4301 10.0794 63.4301 10.9406C63.4301 11.8019 62.7293 12.5026 61.8681 12.5026Z" fill="#F38E3D"/>
<path d="M10.9466 12.5026C8.36268 12.5026 6.2605 14.6048 6.2605 17.1887C6.2605 19.7726 8.36268 21.8746 10.9466 21.8746C13.5305 21.8746 15.6327 19.7724 15.6327 17.1887C15.6325 14.6046 13.5305 12.5026 10.9466 12.5026ZM10.9466 18.7505C10.0853 18.7505 9.38456 18.0498 9.38456 17.1885C9.38456 16.3273 10.0853 15.6265 10.9466 15.6265C11.8078 15.6265 12.5086 16.3273 12.5086 17.1885C12.5086 18.0498 11.8078 18.7505 10.9466 18.7505Z" fill="#F38E3D"/>
<path d="M28.1286 37.4945C24.6834 37.4945 21.8806 40.2972 21.8806 43.7425C21.8806 47.1876 24.6834 49.9904 28.1286 49.9904C31.5737 49.9904 34.3765 47.1876 34.3765 43.7425C34.3765 40.2973 31.5737 37.4945 28.1286 37.4945ZM28.1286 46.8665C26.4059 46.8665 25.0045 45.4651 25.0045 43.7425C25.0045 42.02 26.4059 40.6184 28.1286 40.6184C29.8511 40.6184 31.2526 42.0198 31.2526 43.7425C31.2526 45.4651 29.8512 46.8665 28.1286 46.8665Z" fill="#F38E3D"/>
</svg>
