<svg width="80" height="80" viewBox="0 0 80 80" fill="none" xmlns="http://www.w3.org/2000/svg">
<path d="M25.7631 30.3139C26.8633 31.4148 28.6481 31.4148 29.7484 30.3139C30.8493 29.2136 30.8493 27.4288 29.7484 26.3279C28.6481 25.2277 26.8633 25.2277 25.7631 26.3286C25.2299 26.8546 24.9297 27.5719 24.9297 28.3212C24.9297 29.0699 25.2299 29.7878 25.7631 30.3139ZM27.3888 27.9543C27.5915 27.7515 27.92 27.7515 28.1227 27.9543C28.3254 28.157 28.3254 28.4855 28.1227 28.6882C27.9193 28.8864 27.5941 28.8845 27.3933 28.6837C27.1924 28.4829 27.1905 28.1576 27.3888 27.9536V27.9543Z" fill="#F38E3D"/>
<path d="M71.2561 53.7255L68.5872 34.577L68.5847 34.5571C68.2934 32.6536 66.6523 31.2499 64.727 31.2583H48.4367L47.0682 21.4386L47.065 21.4194C46.7353 19.2574 44.8716 17.6631 42.6845 17.6727H38.6126V13.8285C38.6126 7.19806 33.2376 1.82312 26.6072 1.82312C19.9761 1.82312 14.6011 7.19806 14.6011 13.8285V17.6727H10.5285C8.34148 17.6637 6.47777 19.258 6.14801 21.42L6.1448 21.4393L0.0109064 65.4467C0.00384932 65.4993 0 65.5525 0 65.6051C0.00449089 69.8663 3.45798 73.3198 7.71918 73.3243H28.9565C29.7245 76.2556 32.3715 78.3008 35.4016 78.3047H67.0828C70.7589 78.3002 73.7383 75.3215 73.7428 71.6447C73.7428 71.6191 73.7389 71.594 73.7376 71.5684C73.8262 71.5087 73.9115 71.4433 73.993 71.374L79.0273 67.0262C80.2007 66.0106 80.3309 64.2361 79.3172 63.0595L71.2561 53.7255ZM16.8998 13.8285C16.8998 8.4677 21.2457 4.12245 26.6059 4.12245C31.9667 4.12245 36.3126 8.4677 36.3126 13.8285V17.6727H16.8998V13.8285ZM2.29997 65.6815L8.4204 21.7671C8.58335 20.7304 9.47896 19.9676 10.5285 19.972H14.6005V25.9885C14.6005 26.623 15.115 27.1382 15.7501 27.1382C16.3853 27.1382 16.8998 26.623 16.8998 25.9885V19.972H35.3272L32.4947 22.5306C32.4658 22.528 32.4363 22.5254 32.4068 22.5254L25.3632 22.4901C25.0559 22.4882 24.7614 22.6095 24.5439 22.827L15.6892 31.6817C14.5902 32.7832 14.5902 34.5668 15.6892 35.6677L20.4091 40.3876C21.5094 41.4885 23.2942 41.4885 24.3944 40.3876L33.2498 31.5322C33.4673 31.3154 33.5886 31.0209 33.5866 30.7136L33.5565 24.6708L36.3132 22.1803V25.9885C36.3132 26.623 36.8284 27.1382 37.4629 27.1382C38.098 27.1382 38.6126 26.623 38.6126 25.9885V19.972H42.6845C43.7341 19.9676 44.6297 20.7304 44.7927 21.7671L46.1149 31.2576H37.7574C35.8321 31.2499 34.191 32.6536 33.8997 34.5571L33.8971 34.5764L28.8167 71.025H7.71918C4.75712 71.0218 2.34488 68.6435 2.29997 65.6815ZM31.2847 30.2459L22.7687 38.7619C22.566 38.9646 22.2375 38.9646 22.0348 38.7619L17.3149 34.042C17.1122 33.8392 17.1122 33.5108 17.3149 33.308L25.8309 24.792L31.2578 24.819L31.2847 30.2459ZM67.0828 76.0054H35.4016C33.024 76.0028 31.0852 74.0974 31.0416 71.7204L36.1734 34.9055C36.2966 34.1266 36.9695 33.5544 37.758 33.5576H64.727C65.5155 33.5544 66.1885 34.1266 66.3117 34.9055L68.8503 53.116L63.995 52.7856L60.528 48.604C61.1677 47.2445 61.4981 45.7606 61.4968 44.2581V38.9871C61.4968 38.3519 60.9823 37.8374 60.3471 37.8374C59.7126 37.8374 59.1975 38.3519 59.1975 38.9871V44.2574C59.1975 48.6514 55.6356 52.2133 51.2422 52.2133C46.8482 52.2133 43.2863 48.6514 43.2863 44.2574V38.9871C43.2863 38.3519 42.7718 37.8374 42.1366 37.8374C41.5015 37.8374 40.987 38.3519 40.987 38.9871V44.2574C40.9837 48.6136 43.7341 52.4956 47.8445 53.9372C51.9556 55.3781 56.528 54.0636 59.2456 50.6589L62.1165 54.1213L61.5937 60.798C61.5699 61.104 61.6694 61.4068 61.8702 61.639L70.0263 71.084C70.3951 71.5126 70.8847 71.8186 71.4313 71.9629C71.2619 74.2398 69.3667 76.0022 67.0828 76.0054ZM77.7005 64.9354C77.6909 65.0714 77.6274 65.1978 77.5241 65.2863L72.4905 69.6341C72.2762 69.8195 71.9516 69.7958 71.7668 69.5808L63.9238 60.4996L64.3447 55.1144L69.7344 55.4814L77.578 64.5626C77.6665 64.6653 77.7108 64.7993 77.7005 64.9354Z" fill="#F38E3D"/>
<path d="M67.7726 56.0395C66.2239 55.926 64.876 57.0904 64.7624 58.6391C64.6489 60.1885 65.8133 61.5364 67.362 61.6499C67.4326 61.6551 67.5025 61.6576 67.5718 61.6576C69.0807 61.6499 70.3151 60.4534 70.369 58.9451C70.4228 57.4375 69.277 56.1556 67.7726 56.0401V56.0395ZM67.9028 59.2332C67.6885 59.4179 67.3646 59.3942 67.1791 59.1799C66.9944 58.9657 67.0181 58.6417 67.2324 58.4563C67.4467 58.2708 67.7707 58.2946 67.9561 58.5089C68.1408 58.7238 68.1171 59.0478 67.9022 59.2332H67.9028Z" fill="#F38E3D"/>
</svg>
