<svg width="80" height="80" viewBox="0 0 80 80" fill="none" xmlns="http://www.w3.org/2000/svg">
<path d="M76 0H4C1.79078 0 0 1.79078 0 4V76C0 78.2092 1.79078 80 4 80H76C78.2091 80 80 78.2092 80 76V4C80 1.79078 78.2092 0 76 0ZM77.3333 76C77.3333 76.7364 76.7364 77.3333 76 77.3333H4C3.26359 77.3333 2.66672 76.7364 2.66672 76V13.3333H77.3334V76H77.3333ZM77.3333 10.6667H2.66672V4C2.66672 3.26359 3.26359 2.66672 4 2.66672H76C76.7364 2.66672 77.3333 3.26359 77.3333 4V10.6667Z" fill="#F38E3D"/>
<path d="M9.33331 5.33325H8.00003C7.26362 5.33325 6.66675 5.93013 6.66675 6.66653C6.66675 7.40294 7.26362 7.99997 8.00003 7.99997H9.33331C10.0697 7.99997 10.6666 7.4031 10.6666 6.66669C10.6666 5.93028 10.0697 5.33325 9.33331 5.33325Z" fill="#F38E3D"/>
<path d="M15.9999 5.33325H14.6667C13.9302 5.33325 13.3334 5.93013 13.3334 6.66653C13.3334 7.40294 13.9304 7.99981 14.6667 7.99981H15.9999C16.7363 7.99981 17.3332 7.40294 17.3332 6.66653C17.3332 5.93013 16.7363 5.33325 15.9999 5.33325Z" fill="#F38E3D"/>
<path d="M22.6668 5.33325H21.3335C20.5971 5.33325 20.0002 5.93013 20.0002 6.66653C20.0002 7.40294 20.5971 7.99981 21.3335 7.99981H22.6668C23.4032 7.99981 24.0001 7.40294 24.0001 6.66653C24.0001 5.93013 23.4031 5.33325 22.6668 5.33325Z" fill="#F38E3D"/>
<path d="M71.9999 5.33325H70.6667C69.9303 5.33325 69.3334 5.93013 69.3334 6.66653C69.3334 7.40294 69.9304 7.99981 70.6667 7.99981H71.9999C72.7364 7.99981 73.3332 7.40294 73.3332 6.66653C73.3332 5.93013 72.7364 5.33325 71.9999 5.33325Z" fill="#F38E3D"/>
<path d="M10.6667 33.3334H26.6667C28.8758 33.3334 30.6667 31.5424 30.6667 29.3334V21.3334C30.6667 19.1243 28.876 17.3334 26.6667 17.3334H10.6667C8.45768 17.3334 6.66675 19.1242 6.66675 21.3334V29.3334C6.66675 31.5426 8.45753 33.3334 10.6667 33.3334ZM16 20.0001H26.6667C27.4032 20.0001 28 20.597 28 21.3334V29.3334C28 30.0698 27.4032 30.6667 26.6667 30.6667H16V20.0001ZM9.33331 21.3334C9.33331 20.597 9.93018 20.0001 10.6666 20.0001H13.3333V30.6668H10.6667C9.93034 30.6668 9.33347 30.0699 9.33347 29.3335V21.3334H9.33331Z" fill="#F38E3D"/>
<path d="M23.9999 24H19.9999C19.2635 24 18.6666 24.5969 18.6666 25.3333C18.6666 26.0697 19.2635 26.6666 19.9999 26.6666H23.9999C24.7363 26.6666 25.3332 26.0697 25.3332 25.3333C25.3332 24.5969 24.7363 24 23.9999 24Z" fill="#F38E3D"/>
<path d="M10.6667 53.3334H26.6667C28.8758 53.3334 30.6667 51.5424 30.6667 49.3334V41.3334C30.6667 39.1243 28.876 37.3334 26.6667 37.3334H10.6667C8.45768 37.3334 6.66675 39.1242 6.66675 41.3334V49.3334C6.66675 51.5426 8.45753 53.3334 10.6667 53.3334ZM16 40.0001H26.6667C27.4032 40.0001 28 40.597 28 41.3334V49.3334C28 50.0698 27.4032 50.6666 26.6667 50.6666H16V40.0001ZM9.33331 41.3334C9.33331 40.597 9.93018 40.0001 10.6666 40.0001H13.3333V50.6668H10.6667C9.93034 50.6668 9.33347 50.0699 9.33347 49.3335V41.3334H9.33331Z" fill="#F38E3D"/>
<path d="M23.9999 44H19.9999C19.2635 44 18.6666 44.5969 18.6666 45.3333C18.6666 46.0697 19.2635 46.6666 19.9999 46.6666H23.9999C24.7363 46.6666 25.3332 46.0697 25.3332 45.3333C25.3332 44.5969 24.7363 44 23.9999 44Z" fill="#F38E3D"/>
<path d="M10.6667 73.3334H26.6667C28.8758 73.3334 30.6667 71.5424 30.6667 69.3334V61.3334C30.6667 59.1243 28.876 57.3334 26.6667 57.3334H10.6667C8.45768 57.3334 6.66675 59.1243 6.66675 61.3334V69.3334C6.66675 71.5426 8.45753 73.3334 10.6667 73.3334ZM16 60.0001H26.6667C27.4032 60.0001 28 60.5971 28 61.3334V69.3334C28 70.0698 27.4032 70.6667 26.6667 70.6667H16V60.0001ZM9.33331 61.3334C9.33331 60.597 9.93018 60.0001 10.6666 60.0001H13.3333V70.6668H10.6667C9.93034 70.6668 9.33347 70.0699 9.33347 69.3335V61.3334H9.33331Z" fill="#F38E3D"/>
<path d="M23.9999 64H19.9999C19.2635 64 18.6666 64.5969 18.6666 65.3333C18.6666 66.0697 19.2635 66.6665 19.9999 66.6665H23.9999C24.7363 66.6665 25.3332 66.0697 25.3332 65.3333C25.3332 64.5969 24.7363 64 23.9999 64Z" fill="#F38E3D"/>
<path d="M36 26.6668H53.3333C54.0697 26.6668 54.6666 26.0699 54.6666 25.3335C54.6666 24.5971 54.0697 24.0002 53.3333 24.0002H36C35.2636 24.0002 34.6667 24.5971 34.6667 25.3335C34.6667 26.0699 35.2636 26.6668 36 26.6668Z" fill="#F38E3D"/>
<path d="M36 46.6666H53.3333C54.0697 46.6666 54.6666 46.0697 54.6666 45.3333C54.6666 44.5969 54.0697 44 53.3333 44H36C35.2636 44 34.6667 44.5969 34.6667 45.3333C34.6667 46.0697 35.2636 46.6666 36 46.6666Z" fill="#F38E3D"/>
<path d="M36 66.6665H53.3333C54.0697 66.6665 54.6666 66.0697 54.6666 65.3333C54.6666 64.5969 54.0697 64 53.3333 64H36C35.2636 64 34.6667 64.5969 34.6667 65.3333C34.6667 66.0697 35.2636 66.6665 36 66.6665Z" fill="#F38E3D"/>
<path d="M61.7241 28.9426C62.2448 29.463 63.0888 29.463 63.6094 28.9426L70.2762 22.2759C70.7815 21.7527 70.7743 20.921 70.2599 20.4068C69.7455 19.8924 68.914 19.8852 68.3908 20.3905L62.6668 26.1146L60.9427 24.3905C60.4196 23.8852 59.5879 23.8924 59.0737 24.4068C58.5593 24.9212 58.5521 25.7527 59.0574 26.2759L61.7241 28.9426Z" fill="#F38E3D"/>
<path d="M61.7241 48.9426C62.2448 49.463 63.0888 49.463 63.6094 48.9426L70.2762 42.2759C70.7815 41.7527 70.7743 40.921 70.2599 40.4068C69.7455 39.8924 68.914 39.8852 68.3908 40.3905L62.6668 46.1146L60.9427 44.3905C60.4196 43.8852 59.5879 43.8924 59.0737 44.4068C58.5593 44.9212 58.5521 45.7527 59.0574 46.2758L61.7241 48.9426Z" fill="#F38E3D"/>
<path d="M61.7241 68.9426C62.2448 69.463 63.0888 69.463 63.6094 68.9426L70.2762 62.2759C70.7815 61.7527 70.7743 60.921 70.2599 60.4068C69.7455 59.8924 68.914 59.8852 68.3908 60.3905L62.6668 66.1146L60.9427 64.3905C60.4196 63.8852 59.5879 63.8924 59.0737 64.4068C58.5593 64.9212 58.5521 65.7527 59.0574 66.2758L61.7241 68.9426Z" fill="#F38E3D"/>
</svg>
