<svg width="20" height="16" viewBox="0 0 20 16" fill="none" xmlns="http://www.w3.org/2000/svg">
<path d="M13.4762 14.819C13.1943 15.101 12.7504 15.101 12.4684 14.819C12.196 14.5466 12.196 14.0932 12.4684 13.8214L17.5786 8.71122L0.715704 8.71122C0.322613 8.71122 1.33514e-05 8.39878 1.33514e-05 8.00569C1.33514e-05 7.6126 0.322613 7.29 0.715704 7.29L17.5786 7.29L12.4684 2.18934C12.196 1.90738 12.196 1.45333 12.4684 1.18153C12.7504 0.899574 13.1943 0.899574 13.4762 1.18153L19.7962 7.50147C20.0686 7.7739 20.0686 8.22732 19.7962 8.49911L13.4762 14.819Z" fill="white"/>
</svg>
