<svg width="18" height="20" viewBox="0 0 18 20" fill="none" xmlns="http://www.w3.org/2000/svg">
<path d="M8.92758 10.7766C8.94829 10.7766 8.96899 10.7766 8.99384 10.7766C9.00213 10.7766 9.01041 10.7766 9.01869 10.7766C9.03112 10.7766 9.04769 10.7766 9.06011 10.7766C10.2736 10.7559 11.2552 10.3293 11.98 9.51336C13.5745 7.71588 13.3094 4.6345 13.2804 4.34044C13.1769 2.13295 12.1332 1.07683 11.2717 0.583972C10.6298 0.215366 9.88016 0.0165666 9.04354 0H9.01455C9.01041 0 9.00213 0 8.99799 0H8.97314C8.51341 0 7.61054 0.0745496 6.74493 0.567405C5.87519 1.06026 4.81493 2.11638 4.71138 4.34044C4.68239 4.6345 4.41733 7.71588 6.01186 9.51336C6.73251 10.3293 7.71408 10.7559 8.92758 10.7766ZM5.8172 4.44398C5.8172 4.43156 5.82134 4.41913 5.82134 4.41085C5.95802 1.44129 8.06612 1.12239 8.96899 1.12239H8.98556C8.99384 1.12239 9.00627 1.12239 9.01869 1.12239C10.1369 1.14724 12.038 1.60282 12.1663 4.41085C12.1663 4.42328 12.1663 4.4357 12.1705 4.44398C12.1746 4.47298 12.4645 7.28929 11.1475 8.772C10.6257 9.36012 9.92986 9.65003 9.01455 9.65831C9.00627 9.65831 9.00213 9.65831 8.99384 9.65831C8.98556 9.65831 8.98142 9.65831 8.97314 9.65831C8.06197 9.65003 7.36204 9.36012 6.84433 8.772C5.53143 7.29758 5.81306 4.46883 5.8172 4.44398Z" fill="#F38E3D"/>
<path d="M17.5049 15.8873C17.5049 15.8832 17.5049 15.879 17.5049 15.8749C17.5049 15.8418 17.5007 15.8086 17.5007 15.7714C17.4759 14.9513 17.422 13.0337 15.6246 12.4208C15.6121 12.4166 15.5956 12.4125 15.5832 12.4083C13.7153 11.932 12.1622 10.8552 12.1456 10.8428C11.893 10.6647 11.5451 10.7268 11.367 10.9795C11.1889 11.2321 11.251 11.58 11.5036 11.7581C11.574 11.8078 13.2224 12.955 15.285 13.4852C16.25 13.8289 16.3576 14.8602 16.3866 15.8045C16.3866 15.8418 16.3866 15.8749 16.3908 15.908C16.3949 16.2808 16.3701 16.8565 16.3038 17.1878C15.6329 17.5688 13.0029 18.8859 9.00208 18.8859C5.01782 18.8859 2.37131 17.5647 1.69622 17.1837C1.62996 16.8523 1.60096 16.2766 1.60925 15.9039C1.60925 15.8708 1.61339 15.8376 1.61339 15.8004C1.64238 14.8561 1.75006 13.8248 2.71507 13.481C4.77761 12.9509 6.42598 11.7995 6.49639 11.754C6.74903 11.5759 6.81115 11.228 6.63306 10.9753C6.45497 10.7227 6.10707 10.6606 5.85443 10.8387C5.83787 10.8511 4.29303 11.9279 2.41687 12.4042C2.4003 12.4083 2.38788 12.4125 2.37545 12.4166C0.577979 13.0337 0.524137 14.9513 0.499288 15.7672C0.499288 15.8045 0.499287 15.8376 0.495146 15.8708C0.495146 15.8749 0.495146 15.879 0.495146 15.8832C0.491004 16.0985 0.486863 17.2044 0.70637 17.7594C0.747786 17.867 0.822336 17.9582 0.921735 18.0203C1.04598 18.1031 4.02383 20 9.00623 20C13.9886 20 16.9665 18.099 17.0907 18.0203C17.186 17.9582 17.2647 17.867 17.3061 17.7594C17.5132 17.2085 17.509 16.1027 17.5049 15.8873Z" fill="#F38E3D"/>
</svg>
