<svg width="15" height="15" viewBox="0 0 15 15" fill="none" xmlns="http://www.w3.org/2000/svg">
<path d="M14.867 14.235L11.2217 10.5898C12.1996 9.46563 12.7916 7.99889 12.7916 6.39579C12.7916 2.86696 9.92129 0 6.39579 0C2.86696 0 0 2.87029 0 6.39579C0 9.92129 2.87029 12.7916 6.39579 12.7916C7.99889 12.7916 9.46563 12.1996 10.5898 11.2217L14.235 14.867C14.3215 14.9534 14.4379 15 14.551 15C14.6641 15 14.7805 14.9568 14.867 14.867C15.0399 14.694 15.0399 14.408 14.867 14.235ZM0.894679 6.39579C0.894679 3.36253 3.36253 0.898004 6.39246 0.898004C9.42572 0.898004 11.8902 3.36585 11.8902 6.39579C11.8902 9.42572 9.42572 11.8969 6.39246 11.8969C3.36253 11.8969 0.894679 9.42905 0.894679 6.39579Z" fill="#BD5605"/>
</svg>
