<svg width="20" height="20" viewBox="0 0 20 20" fill="none" xmlns="http://www.w3.org/2000/svg">
<path d="M6.44379 12.9298H6.4447C6.44546 12.9298 6.44623 12.9297 6.44699 12.9297H17.0703C17.3318 12.9297 17.5618 12.7562 17.6337 12.5047L19.9774 4.30161C20.0279 4.12476 19.9925 3.93463 19.8819 3.78784C19.7711 3.64105 19.5979 3.55469 19.4141 3.55469H5.09247L4.67361 1.66977C4.61395 1.40167 4.37622 1.21094 4.10156 1.21094H0.585937C0.262299 1.21094 0 1.47324 0 1.79688C0 2.12051 0.262299 2.38281 0.585937 2.38281H3.63159C3.70575 2.71683 5.63599 11.403 5.74707 11.9028C5.12436 12.1735 4.6875 12.7943 4.6875 13.5156C4.6875 14.4849 5.47607 15.2734 6.44531 15.2734H17.0703C17.3939 15.2734 17.6562 15.0111 17.6562 14.6875C17.6562 14.3639 17.3939 14.1016 17.0703 14.1016H6.44531C6.12228 14.1016 5.85937 13.8387 5.85937 13.5156C5.85937 13.1931 6.12137 12.9306 6.44379 12.9298ZM18.6372 4.72656L16.6283 11.7578H6.91528L5.35278 4.72656H18.6372Z" fill="#F38E3D"/>
<path d="M5.85925 17.0313C5.85925 18.0005 6.64783 18.7891 7.61707 18.7891C8.5863 18.7891 9.37488 18.0005 9.37488 17.0313C9.37488 16.062 8.5863 15.2734 7.61707 15.2734C6.64783 15.2734 5.85925 16.062 5.85925 17.0313ZM7.61707 16.4453C7.94009 16.4453 8.203 16.7082 8.203 17.0313C8.203 17.3543 7.94009 17.6172 7.61707 17.6172C7.29404 17.6172 7.03113 17.3543 7.03113 17.0313C7.03113 16.7082 7.29404 16.4453 7.61707 16.4453Z" fill="#F38E3D"/>
<path d="M14.1404 17.0313C14.1404 18.0005 14.929 18.7891 15.8982 18.7891C16.8674 18.7891 17.656 18.0005 17.656 17.0313C17.656 16.062 16.8674 15.2734 15.8982 15.2734C14.929 15.2734 14.1404 16.062 14.1404 17.0313ZM15.8982 16.4453C16.2212 16.4453 16.4841 16.7082 16.4841 17.0313C16.4841 17.3543 16.2212 17.6172 15.8982 17.6172C15.5752 17.6172 15.3123 17.3543 15.3123 17.0313C15.3123 16.7082 15.5752 16.4453 15.8982 16.4453Z" fill="#F38E3D"/>
</svg>
