<svg width="20" height="18" viewBox="0 0 20 18" fill="none" xmlns="http://www.w3.org/2000/svg">
<path d="M18.385 1.84083C17.3377 0.793551 15.9513 0.221155 14.4715 0.221155C12.9918 0.221155 11.6011 0.797791 10.5538 1.84506L10.0068 2.39202L9.4514 1.83659C8.40413 0.789312 7.00918 0.208435 5.52943 0.208435C4.05392 0.208435 2.66321 0.785071 1.62018 1.82811C0.572907 2.87538 -0.00372847 4.26609 0.000511498 5.74584C0.000511498 7.22559 0.581387 8.61206 1.62866 9.65934L9.59132 17.622C9.70156 17.7322 9.84996 17.7916 9.99412 17.7916C10.1383 17.7916 10.2867 17.7365 10.3969 17.6262L18.3765 9.6763C19.4238 8.62902 20.0004 7.23831 20.0004 5.75856C20.0047 4.27881 19.4323 2.8881 18.385 1.84083ZM17.5709 8.86646L9.99412 16.4136L2.43425 8.85374C1.60322 8.02271 1.1453 6.92031 1.1453 5.74584C1.1453 4.57137 1.59898 3.46898 2.43001 2.64218C3.25681 1.81539 4.3592 1.35747 5.52943 1.35747C6.7039 1.35747 7.81053 1.81539 8.64157 2.64642L9.5998 3.60465C9.82452 3.82937 10.1849 3.82937 10.4096 3.60465L11.3594 2.6549C12.1904 1.82387 13.2971 1.36595 14.4673 1.36595C15.6375 1.36595 16.7399 1.82387 17.5709 2.65066C18.402 3.4817 18.8557 4.58409 18.8557 5.75856C18.8599 6.93303 18.402 8.03543 17.5709 8.86646Z" fill="#F38E3D"/>
</svg>
