<svg width="11" height="15" viewBox="0 0 11 15" fill="none" xmlns="http://www.w3.org/2000/svg">
<path d="M9.21509 1.53871C8.22288 0.546506 6.9036 0 5.50049 0C4.09711 0 2.7781 0.546506 1.7859 1.53871C-0.0503032 3.37464 -0.278493 6.82899 1.29172 8.92187L5.50049 15L9.70297 8.93036C11.2795 6.82899 11.0513 3.37464 9.21509 1.53871ZM9.25864 8.61013L5.50049 14.0374L1.73632 8.60164C0.312116 6.7027 0.5162 3.5831 2.17352 1.92606C3.06218 1.0374 4.24367 0.547875 5.50049 0.547875C6.75732 0.547875 7.93881 1.0374 8.82774 1.92606C10.4851 3.5831 10.6891 6.7027 9.25864 8.61013Z" fill="#F38E3D"/>
</svg>
