<svg width="15" height="15" viewBox="0 0 15 15" fill="none" xmlns="http://www.w3.org/2000/svg">
<path d="M3.05653 9.97099C4.53601 11.7395 6.31699 13.132 8.34973 14.1173C9.12367 14.484 10.1587 14.9192 11.3118 14.9938C11.3833 14.9969 11.4517 15 11.5232 15C12.2971 15 12.9187 14.7327 13.4254 14.1826C13.4285 14.1794 13.4347 14.1732 13.4378 14.167C13.6181 13.9494 13.8232 13.7536 14.0377 13.5454C14.1838 13.4055 14.333 13.2594 14.4759 13.1102C15.138 12.4202 15.138 11.5437 14.4697 10.8755L12.6017 9.00746C12.2847 8.67799 11.9055 8.50394 11.5076 8.50394C11.1098 8.50394 10.7275 8.67799 10.4011 9.00435L9.2884 10.1171C9.18583 10.058 9.08015 10.0052 8.98069 9.95545C8.85637 9.89329 8.74136 9.83423 8.63879 9.76896C7.62553 9.12557 6.70551 8.28637 5.8259 7.20783C5.38143 6.64525 5.08305 6.17281 4.8748 5.69105C5.16697 5.42685 5.44049 5.15023 5.70468 4.87982C5.79793 4.78346 5.89428 4.68711 5.99064 4.59076C6.32632 4.25508 6.50659 3.86656 6.50659 3.47182C6.50659 3.07708 6.32943 2.68856 5.99064 2.35288L5.0644 1.42665C4.95562 1.31786 4.85305 1.21218 4.74737 1.1034C4.54223 0.892043 4.32777 0.674472 4.11641 0.478657C3.79627 0.164733 3.42018 0 3.02234 0C2.6276 0 2.2484 0.164733 1.91583 0.481765L0.753375 1.64422C0.330664 2.06693 0.091335 2.57978 0.0416043 3.17344C-0.0174508 3.91629 0.119309 4.70576 0.47364 5.65997C1.01757 7.13634 1.83812 8.50704 3.05653 9.97099ZM0.799997 3.23871C0.837295 2.82532 0.995812 2.48031 1.2942 2.18193L2.45043 1.02569C2.63071 0.851637 2.82963 0.7615 3.02234 0.7615C3.21193 0.7615 3.40464 0.851637 3.58181 1.03191C3.79005 1.22462 3.98587 1.42665 4.19722 1.64111C4.3029 1.7499 4.41169 1.85868 4.52047 1.97058L5.44671 2.89681C5.63941 3.08951 5.73887 3.28533 5.73887 3.47804C5.73887 3.67074 5.63941 3.86656 5.44671 4.05926C5.35035 4.15562 5.254 4.25508 5.15765 4.35143C4.86859 4.6436 4.59818 4.92022 4.29979 5.18442C4.29358 5.19063 4.29047 5.19374 4.28425 5.19996C4.02627 5.45794 4.06668 5.70348 4.12884 5.88997C4.13195 5.8993 4.13506 5.90551 4.13817 5.91484C4.3775 6.48985 4.71007 7.03688 5.22914 7.6896C6.16158 8.83962 7.14377 9.73166 8.22541 10.4186C8.35906 10.5056 8.50203 10.574 8.63568 10.6424C8.76001 10.7045 8.87501 10.7636 8.97758 10.8288C8.99002 10.8351 8.99934 10.8413 9.01177 10.8475C9.11434 10.9003 9.21381 10.9252 9.31327 10.9252C9.56192 10.9252 9.72354 10.7667 9.77638 10.7138L10.9388 9.55139C11.1191 9.37111 11.3149 9.27476 11.5076 9.27476C11.7439 9.27476 11.9366 9.42085 12.0578 9.55139L13.932 11.4225C14.305 11.7955 14.3019 12.1995 13.9227 12.5943C13.7921 12.7341 13.6554 12.8678 13.5093 13.0077C13.2917 13.219 13.0648 13.4366 12.8597 13.6821C12.5022 14.0676 12.0764 14.2478 11.5263 14.2478C11.4734 14.2478 11.4175 14.2447 11.3647 14.2416C10.3452 14.1763 9.39719 13.7785 8.68542 13.4397C6.75214 12.5041 5.05508 11.177 3.64708 9.49233C2.48773 8.09677 1.70758 6.79755 1.19163 5.4051C0.871485 4.55035 0.750266 3.86345 0.799997 3.23871Z" fill="#F38E3D"/>
</svg>
